<svg width="100%" height="100%" viewBox="0 0 1207 408" version="1.1" xmlns="http://www.w3.org/2000/svg" xmlns:xlink="http://www.w3.org/1999/xlink" xml:space="preserve" xmlns:serif="http://www.serif.com/" style="fill:gray;fill-rule:evenodd;clip-rule:evenodd;stroke-linejoin:round;stroke-miterlimit:2;"><g><path d="M261.768,230.76c-0,11.621 -1.368,23.73 -4.102,36.328c-2.734,12.597 -6.567,24.878 -11.499,36.841c-4.932,11.963 -10.864,23.266 -17.798,33.911c-6.933,10.644 -14.648,19.873 -23.144,27.685l-18.604,-10.107c2.832,-5.078 5.42,-10.791 7.764,-17.139c2.344,-6.347 4.492,-13.037 6.445,-20.068c1.953,-7.031 3.662,-14.258 5.127,-21.68c1.465,-7.422 2.71,-14.819 3.735,-22.192c1.026,-7.373 1.783,-14.527 2.271,-21.46c0.488,-6.934 0.732,-13.428 0.732,-19.483c0,-3.418 -0.097,-7.128 -0.293,-11.132c-0.195,-4.004 -0.61,-8.008 -1.245,-12.012c-0.635,-4.004 -1.587,-7.837 -2.856,-11.499c-1.27,-3.662 -3.003,-6.934 -5.2,-9.815c-2.198,-2.88 -4.932,-5.175 -8.204,-6.884c-3.271,-1.709 -7.202,-2.564 -11.792,-2.564c-4.492,0 -8.325,1.196 -11.499,3.589c-3.173,2.393 -5.883,5.493 -8.129,9.302c-2.247,3.808 -4.029,8.105 -5.347,12.89c-1.318,4.786 -2.319,9.595 -3.003,14.429c-0.684,4.834 -1.148,9.448 -1.392,13.843c-0.244,4.394 -0.366,8.105 -0.366,11.133l0,84.814l-49.365,0l-0,-78.808c-0,-3.418 0.049,-7.544 0.146,-12.378c0.098,-4.834 -0.024,-9.888 -0.366,-15.161c-0.342,-5.274 -0.976,-10.523 -1.904,-15.748c-0.928,-5.224 -2.393,-9.887 -4.395,-13.989c-2.002,-4.101 -4.712,-7.446 -8.13,-10.034c-3.418,-2.588 -7.714,-3.882 -12.89,-3.882c-4.395,0 -8.081,1.221 -11.06,3.662c-2.978,2.442 -5.468,5.591 -7.47,9.449c-2.002,3.857 -3.565,8.203 -4.688,13.037c-1.123,4.834 -1.953,9.668 -2.49,14.502c-0.537,4.834 -0.855,9.423 -0.952,13.769c-0.098,4.346 -0.147,7.935 -0.147,10.767l0,84.814l-49.658,0l-0,-169.189l19.043,-0l18.164,39.404c4.102,-13.672 10.571,-24.341 19.409,-32.007c8.838,-7.666 20.581,-11.499 35.23,-11.499c13.183,0 24.121,2.735 32.812,8.203c8.692,5.469 15.528,14.356 20.508,26.66c2.832,-5.371 5.981,-10.205 9.448,-14.502c3.467,-4.296 7.324,-7.959 11.573,-10.986c4.248,-3.027 8.959,-5.347 14.135,-6.958c5.176,-1.611 10.889,-2.417 17.139,-2.417c11.523,0 21.362,1.88 29.517,5.64c8.154,3.76 14.819,8.96 19.995,15.6c5.175,6.641 8.935,14.527 11.279,23.658c2.344,9.13 3.516,19.018 3.516,29.663Z" style="fill-rule:nonzero;"/><path d="M343.335,329.49l-58.155,0c0,0 17.471,-188.229 2.446,-220.228c-13.714,-29.208 -92.593,28.236 -92.593,28.236l0,-39.453l241.1,-98.045l-0.199,57.074c0,0 -81.713,-1.415 -92.07,29.054c-15.433,45.403 -0.529,243.362 -0.529,243.362Z" style="fill-rule:nonzero;"/><path d="M559.567,232.518c0,11.425 -1.391,23.339 -4.174,35.742c-2.784,12.402 -6.665,24.56 -11.646,36.474c-4.98,11.914 -10.937,23.12 -17.871,33.618c-6.934,10.499 -14.551,19.556 -22.852,27.173l-18.603,-10.107c2.637,-4.883 5.127,-10.352 7.471,-16.406c2.343,-6.055 4.467,-12.476 6.372,-19.263c1.904,-6.787 3.613,-13.794 5.127,-21.021c1.513,-7.226 2.783,-14.379 3.808,-21.46c1.026,-7.08 1.807,-13.964 2.344,-20.654c0.537,-6.689 0.806,-12.915 0.806,-18.677c-0,-3.808 -0.147,-7.885 -0.44,-12.231c-0.293,-4.346 -0.903,-8.691 -1.831,-13.037c-0.928,-4.346 -2.173,-8.521 -3.735,-12.525c-1.563,-4.003 -3.638,-7.519 -6.226,-10.546c-2.588,-3.028 -5.713,-5.469 -9.375,-7.325c-3.662,-1.855 -7.983,-2.783 -12.964,-2.783c-4.882,0 -9.228,1.099 -13.037,3.296c-3.808,2.197 -7.177,5.078 -10.107,8.643c-2.93,3.564 -5.444,7.641 -7.544,12.231c-2.1,4.59 -3.809,9.302 -5.127,14.136c-1.318,4.834 -2.271,9.595 -2.856,14.282c-0.586,4.688 -0.879,8.887 -0.879,12.598l-0,84.814l-49.659,0c0,0 -8.26,-194.546 0,-231.445c3.683,-16.45 49.564,10.05 49.564,10.05l-0.052,77.108c6.348,-9.277 14.136,-16.431 23.364,-21.46c9.229,-5.029 19.458,-7.544 30.689,-7.544c11.719,0 21.924,1.904 30.615,5.713c8.691,3.809 15.918,9.106 21.68,15.894c5.761,6.787 10.058,14.843 12.89,24.17c2.832,9.326 4.248,19.506 4.248,30.542Z" style="fill-rule:nonzero;"/><path d="M622.151,249.217c5.229,1.367 10.457,2.441 15.685,3.222c5.229,0.782 10.499,1.172 15.812,1.172c5.565,0 10.73,-0.61 15.495,-1.831c4.764,-1.221 8.896,-3.271 12.396,-6.152c3.499,-2.881 6.261,-6.714 8.285,-11.499c2.024,-4.785 3.036,-10.742 3.036,-17.871c-0,-5.762 -0.675,-11.035 -2.024,-15.821c-1.349,-4.785 -3.352,-8.886 -6.008,-12.304c-2.657,-3.418 -5.924,-6.079 -9.803,-7.984c-3.88,-1.904 -8.391,-2.856 -13.535,-2.856c-4.807,-0 -9.128,1.025 -12.965,3.076c-3.837,2.051 -7.21,4.81 -10.12,8.276c-2.909,3.467 -5.396,7.496 -7.463,12.085c-2.066,4.59 -3.773,9.375 -5.122,14.356c-1.35,4.98 -2.319,10.01 -2.91,15.088c-0.59,5.078 -0.885,9.863 -0.885,14.355l-0,2.344c-0,0.781 0.042,1.562 0.126,2.344Zm105.367,-33.399c0,6.934 -0.97,13.111 -2.909,18.531c-1.94,5.419 -4.575,10.18 -7.906,14.282c-3.331,4.101 -7.189,7.568 -11.574,10.4c-4.385,2.832 -9.065,5.152 -14.04,6.958c-4.975,1.807 -10.098,3.101 -15.369,3.882c-5.27,0.781 -10.393,1.172 -15.368,1.172c-6.325,-0 -12.565,-0.513 -18.721,-1.538c-6.156,-1.026 -12.227,-2.661 -18.215,-4.907c0.928,6.445 2.404,12.573 4.427,18.383c2.024,5.811 4.723,10.889 8.096,15.235c3.373,4.345 7.526,7.788 12.459,10.327c4.933,2.539 10.773,3.808 17.519,3.808c4.47,0 8.728,-0.781 12.776,-2.343c4.047,-1.563 7.758,-3.76 11.131,-6.592c3.373,-2.832 6.346,-6.201 8.918,-10.107c2.572,-3.907 4.659,-8.252 6.261,-13.038l18.468,7.911c-2.783,7.714 -6.599,14.379 -11.448,19.995c-4.849,5.615 -10.33,10.254 -16.444,13.916c-6.113,3.662 -12.607,6.372 -19.479,8.13c-6.873,1.757 -13.682,2.636 -20.429,2.636c-11.131,0 -21.419,-2.173 -30.863,-6.518c-9.445,-4.346 -17.583,-10.425 -24.413,-18.238c-6.831,-7.812 -12.185,-17.138 -16.064,-27.978c-3.879,-10.84 -5.819,-22.705 -5.819,-35.596c0,-12.89 1.94,-24.756 5.819,-35.595c3.879,-10.84 9.233,-20.166 16.064,-27.979c6.83,-7.812 14.968,-13.892 24.413,-18.237c9.444,-4.346 19.732,-6.519 30.863,-6.519c5.397,0 10.921,0.44 16.571,1.319c5.65,0.878 11.131,2.27 16.444,4.174c5.312,1.905 10.33,4.37 15.052,7.398c4.722,3.027 8.833,6.762 12.333,11.206c3.499,4.443 6.282,9.595 8.348,15.454c2.066,5.859 3.099,12.549 3.099,20.068Z" style="fill-rule:nonzero;"/><path d="M911.039,244.529c0,8.789 -1.028,17.041 -3.084,24.756c-2.056,7.715 -4.905,14.844 -8.546,21.387c-3.641,6.543 -8.031,12.427 -13.171,17.651c-5.14,5.225 -10.773,9.644 -16.898,13.257c-6.126,3.613 -12.679,6.396 -19.661,8.35c-6.983,1.953 -14.157,2.929 -21.525,2.929c-7.367,0 -14.521,-0.976 -21.46,-2.929c-6.939,-1.954 -13.471,-4.737 -19.597,-8.35c-6.125,-3.613 -11.758,-8.032 -16.898,-13.257c-5.14,-5.224 -9.531,-11.108 -13.172,-17.651c-3.641,-6.543 -6.489,-13.696 -8.545,-21.46c-2.056,-7.764 -3.084,-15.991 -3.084,-24.683c-0,-8.691 1.028,-16.919 3.084,-24.682c2.056,-7.764 4.904,-14.917 8.545,-21.46c3.641,-6.543 8.032,-12.427 13.172,-17.652c5.14,-5.224 10.773,-9.643 16.898,-13.257c6.126,-3.613 12.658,-6.396 19.597,-8.349c6.939,-1.953 14.093,-2.93 21.46,-2.93c7.368,0 14.542,0.977 21.525,2.93c6.982,1.953 13.535,4.736 19.661,8.349c6.125,3.614 11.758,8.033 16.898,13.257c5.14,5.225 9.53,11.109 13.171,17.652c3.641,6.543 6.49,13.696 8.546,21.46c2.056,7.763 3.084,15.991 3.084,24.682Zm-44.205,0c-0,-4.687 -0.236,-9.643 -0.707,-14.868c-0.471,-5.225 -1.264,-10.352 -2.377,-15.381c-1.114,-5.029 -2.635,-9.863 -4.562,-14.502c-1.928,-4.638 -4.305,-8.691 -7.132,-12.158c-2.827,-3.467 -6.211,-6.25 -10.152,-8.35c-3.941,-2.099 -8.524,-3.149 -13.75,-3.149c-4.969,0 -9.381,1.074 -13.236,3.223c-3.855,2.148 -7.217,5.005 -10.087,8.569c-2.87,3.564 -5.269,7.69 -7.196,12.378c-1.928,4.687 -3.491,9.546 -4.691,14.575c-1.199,5.029 -2.056,10.108 -2.57,15.235c-0.514,5.126 -0.771,9.936 -0.771,14.428c0,4.492 0.257,9.302 0.771,14.429c0.514,5.127 1.371,10.229 2.57,15.308c1.2,5.078 2.763,9.936 4.691,14.575c1.927,4.638 4.326,8.74 7.196,12.304c2.87,3.565 6.232,6.421 10.087,8.57c3.855,2.148 8.267,3.222 13.236,3.222c5.14,0 9.681,-1.049 13.622,-3.149c3.94,-2.1 7.346,-4.907 10.216,-8.423c2.869,-3.515 5.247,-7.568 7.132,-12.158c1.884,-4.59 3.405,-9.424 4.561,-14.502c1.157,-5.078 1.971,-10.205 2.442,-15.381c0.471,-5.176 0.707,-10.107 0.707,-14.795Z" style="fill-rule:nonzero;"/><path d="M1080.04,175.242l-27.832,46.143c-1.172,-3.907 -2.686,-8.301 -4.541,-13.184c-1.856,-4.883 -4.151,-9.448 -6.885,-13.696c-2.735,-4.248 -6.006,-7.813 -9.815,-10.694c-3.808,-2.88 -8.203,-4.321 -13.183,-4.321c-4.59,0 -8.57,1.172 -11.939,3.516c-3.369,2.344 -6.225,5.395 -8.569,9.155c-2.344,3.76 -4.273,8.008 -5.786,12.744c-1.514,4.737 -2.686,9.522 -3.516,14.356c-0.83,4.834 -1.391,9.472 -1.684,13.916c-0.293,4.443 -0.44,8.276 -0.44,11.499l0,84.814l-49.658,0l-0,-169.189l19.043,-0l20.068,39.404c2.735,-6.348 5.86,-12.183 9.375,-17.505c3.516,-5.322 7.569,-9.912 12.159,-13.769c4.589,-3.858 9.79,-6.861 15.6,-9.009c5.811,-2.149 12.378,-3.223 19.702,-3.223c3.809,0 8.057,0.318 12.744,0.952c4.688,0.635 9.278,1.709 13.77,3.223c4.492,1.514 8.642,3.491 12.451,5.933c3.809,2.441 6.787,5.419 8.936,8.935Z" style="fill-rule:nonzero;"/><path d="M1206.38,160.301l-61.524,148.828c-7.031,16.992 -14.868,33.813 -23.511,50.464c-8.642,16.65 -17.993,32.641 -28.051,47.973l-19.336,-11.718c2.441,-4.395 5.322,-9.473 8.642,-15.235c3.321,-5.762 6.592,-11.719 9.815,-17.871c3.222,-6.152 3.037,-5.775 5.772,-11.78c2.734,-6.006 0.852,-22.378 -2.128,-32.985c-4.64,-16.52 -25.717,-66.13 -25.717,-66.13l28.333,-47.963c0,0 21.46,76.585 34.755,70.821c13.296,-5.764 38.672,-114.404 38.672,-114.404l34.278,-0Z" style="fill-rule:nonzero;"/></g></svg>